# xmcd CD database file
#
# Track frame offsets:
#	150
#	31930
#	49410
#
# Disc length: 859 seconds
#
# Revision: 0
# Processed by: cddbd v1.5PL3 Copyright (c) Steve Scherf et al.
# Submitted via: CDex 1.50beta8
#
DISCID=20035903
DTITLE=REBECCA - BOTTOM LINE
DYEAR=1985
DGENRE=Rock
TTITLE0=BOTTOM LINE
TTITLE1=LOVE PASSION
TTITLE2=76'th STAR
EXTD=YEAR: 1985
EXTT0=
EXTT1=
EXTT2=
PLAYORDER=
